<?xml version="1.0" encoding="UTF-8"?>
<svg version="1.1" xmlns="http://www.w3.org/2000/svg" width="512" height="512">
<path d="M0 0 C2.17014116 -0.00299828 4.3402818 -0.00640233 6.51042175 -0.01017761 C12.36633297 -0.01895556 18.22222954 -0.02135315 24.0781467 -0.0219934 C27.7497267 -0.02270764 31.42130306 -0.02484903 35.09288216 -0.02749062 C47.93920246 -0.03672478 60.78551243 -0.04082808 73.63183594 -0.04003906 C85.54513522 -0.03943937 97.45838906 -0.04997486 109.37167686 -0.06578273 C119.64912928 -0.07892662 129.92656697 -0.08422008 140.20402771 -0.08358365 C146.32021789 -0.0833306 152.43636767 -0.08607404 158.55254936 -0.0967617 C164.31551511 -0.10655834 170.07840278 -0.10644406 175.84137154 -0.09924507 C177.93569174 -0.0982133 180.03001712 -0.10047634 182.12432861 -0.10660553 C221.73556091 -0.21486031 262.13893031 2.47756482 292.24047852 30.83276367 C309.60164192 48.65652861 315.09487657 73.38233273 317.86547852 97.27026367 C318.03889771 98.73919067 318.03889771 98.73919067 318.21582031 100.23779297 C320.95968119 126.7159463 320.27402236 153.56255929 320.24584961 180.1418457 C320.24015283 185.55714044 320.24353832 190.97238604 320.24928951 196.3876791 C320.35131361 309.45276895 320.35131361 309.45276895 295.11547852 339.14526367 C294.5830957 339.82202148 294.05071289 340.4987793 293.50219727 341.19604492 C288.52168363 347.31767863 282.2037506 352.60112763 275.11547852 356.14526367 C269.85972686 356.66912127 265.47021757 356.81031739 260.67797852 354.45776367 C256.6724358 350.84300561 253.53235607 347.67163778 252.87719727 342.12963867 C252.69449947 336.62947347 253.37320204 332.39480524 257.11547852 328.14526367 C258.69194347 326.84022486 260.29940492 325.57216519 261.92797852 324.33276367 C277.04602014 312.7496759 281.2721684 293.65589578 283.77172852 275.68041992 C287.11655674 248.39463611 286.27489732 220.60207874 286.24584961 193.16918945 C286.24015281 187.73698263 286.24354211 182.30482478 286.24928284 176.87261963 C286.71162131 137.93263094 286.71162131 137.93263094 283.86547852 99.14526367 C283.73689453 98.12601807 283.60831055 97.10677246 283.47583008 96.05664062 C281.23945412 79.60533223 277.33823547 62.75446085 264.65063477 51.02026367 C240.59851362 33.2313297 208.09371709 34.14267756 179.55297852 33.59057617 C178.5095932 33.56964024 177.46620789 33.5487043 176.39120483 33.52713394 C149.63885613 33.00209001 122.88584767 32.99262345 96.12932587 33.01669431 C91.45250223 33.02046627 86.77569981 33.01909773 82.09887695 33.01489258 C56.15778162 32.99231572 30.21688691 33.00471481 4.27920532 33.4722023 C2.26620502 33.50846992 0.25316316 33.54252326 -1.75991821 33.57397079 C-12.24794076 33.74446956 -22.6728694 34.18508424 -33.12670898 35.07055664 C-34.51665321 35.18708682 -34.51665321 35.18708682 -35.93467712 35.30597115 C-55.89965221 37.1290497 -76.58404293 41.56690953 -90.03686523 57.61401367 C-98.98601299 69.87415689 -101.701131 84.2275345 -103.57202148 98.95776367 C-103.69150146 99.87323975 -103.81098145 100.78871582 -103.93408203 101.73193359 C-106.93273045 127.81648352 -106.0422509 154.39576711 -106.01489258 180.60351562 C-106.00919222 186.10528067 -106.01258757 191.60699742 -106.01832485 197.10876083 C-106.45595173 235.76717593 -106.45595173 235.76717593 -103.57202148 274.27026367 C-103.37527832 275.81967651 -103.37527832 275.81967651 -103.17456055 277.40039062 C-100.9604374 293.86825413 -96.74595885 312.16559509 -83.31420898 323.27026367 C-82.47116211 323.88901367 -81.62811523 324.50776367 -80.75952148 325.14526367 C-76.23610383 328.70610882 -73.34999749 331.35984852 -72.61889648 337.30541992 C-72.38456719 342.31839314 -72.9964578 345.90943693 -75.88452148 350.14526367 C-79.97915687 354.17438489 -83.1841795 356.31528999 -88.94702148 356.58276367 C-95.48371198 356.49765051 -98.97908194 354.25730169 -103.88452148 350.14526367 C-104.69791992 349.50331055 -105.51131836 348.86135742 -106.34936523 348.19995117 C-128.74687381 329.49509809 -135.6349704 299.91051927 -138.16159058 272.09501648 C-140.16063993 245.80691527 -140.04285045 219.49585773 -140.01489258 193.14868164 C-140.00919579 187.73337197 -140.01258584 182.31811142 -140.01832581 176.90280342 C-140.07168714 117.90300943 -140.07168714 117.90300943 -137.63452148 97.27026367 C-137.5059375 96.16642334 -137.37735352 95.06258301 -137.24487305 93.92529297 C-133.76918737 66.09773332 -125.08211667 39.71928489 -102.21899414 21.84301758 C-73.22386322 0.55534706 -34.50679784 -0.00959317 0 0 Z " fill="#BABABA" transform="translate(165.884521484375,47.854736328125)"/>
<path d="M0 0 C10.59622522 9.58928766 17.85509981 19.59360636 19.69091797 34.07617188 C20.34071471 47.17691257 13.77047051 57.0687093 5.60498047 66.65820312 C-8.98997884 82.30247324 -30.0368079 94.21875935 -51.64331055 95.0880127 C-54.07606228 95.11132748 -56.50908365 95.1136502 -58.94189453 95.09765625 C-60.29906965 95.10309721 -61.65623885 95.11023076 -63.01339722 95.11889648 C-66.64991541 95.1368991 -70.28597209 95.13015969 -73.9224968 95.11738014 C-77.75913328 95.10713098 -81.59573473 95.11667841 -85.43237305 95.1229248 C-91.87083913 95.13016701 -98.30912065 95.12070431 -104.74755859 95.1015625 C-112.15208894 95.07980028 -119.55617844 95.0868541 -126.96069813 95.10886812 C-133.36037071 95.12712064 -139.75991192 95.12953272 -146.15960217 95.11911345 C-149.96333713 95.1129322 -153.76686609 95.11189229 -157.57058716 95.1252594 C-161.14962135 95.1369623 -164.72809678 95.12853482 -168.30707169 95.10568237 C-170.2184501 95.0980196 -172.12987678 95.10962664 -174.04122925 95.12219238 C-186.01801662 95.00741035 -197.66565435 92.41352802 -208.18798828 86.51757812 C-208.88923828 86.13472656 -209.59048828 85.751875 -210.31298828 85.35742188 C-225.85366123 76.58944727 -241.63336826 63.93697486 -247.50048828 46.58007812 C-250.28605588 35.85480887 -248.44753826 25.6633338 -243.18798828 15.91601562 C-234.31263226 2.47497165 -222.12360936 -6.14306793 -208.62548828 -14.41992188 C-207.62437012 -15.03480469 -206.62325195 -15.6496875 -205.59179688 -16.28320312 C-138.72118236 -56.95781735 -59.92575088 -52.34727653 0 0 Z M-211.62548828 29.76757812 C-213.81155451 32.25220433 -215.48391063 34.19508511 -215.62548828 37.58007812 C-209.19283174 47.86877463 -196.09518505 56.88638685 -184.62548828 60.58007812 C-176.67821964 62.32720115 -168.92014914 62.87099145 -160.80517578 62.83886719 C-159.69128479 62.84237183 -158.5773938 62.84587646 -157.42974854 62.8494873 C-153.78659638 62.85821334 -150.14364205 62.85248785 -146.50048828 62.84570312 C-143.94563765 62.8470524 -141.39078726 62.84899511 -138.8359375 62.85150146 C-133.49688012 62.85444038 -128.15789216 62.85038895 -122.81884766 62.84082031 C-116.67717212 62.82993918 -110.53562946 62.83346602 -104.39395714 62.84447312 C-98.44591561 62.85469987 -92.49791476 62.85354481 -86.54986572 62.84770966 C-84.03664125 62.84638237 -81.52341334 62.84798833 -79.01019287 62.85266876 C-75.4886395 62.85778893 -71.96733573 62.849947 -68.44580078 62.83886719 C-67.42311096 62.84291565 -66.40042114 62.84696411 -65.34674072 62.85113525 C-46.82466187 62.74402035 -33.23534192 57.24511547 -19.62548828 44.58007812 C-18.93841797 43.94714844 -18.25134766 43.31421875 -17.54345703 42.66210938 C-15.57773062 40.76378371 -15.57773062 40.76378371 -13.62548828 37.58007812 C-15.68288122 28.22265844 -23.54584738 23.10990787 -31.13671875 18.17480469 C-88.28000021 -17.9120573 -161.5881849 -24.78210733 -211.62548828 29.76757812 Z " fill="#101010" transform="translate(370.62548828125,369.419921875)"/>
<path d="M0 0 C14.05023479 10.92361787 23.39470023 25.47403796 26.99609375 42.93359375 C27.22296875 44.02671875 27.44984375 45.11984375 27.68359375 46.24609375 C29.47411751 67.37427407 24.62838861 87.0915798 10.81640625 103.52734375 C-0.31963728 115.35710802 -16.01261927 125.05988295 -32.58422852 126.09472656 C-55.20592209 126.44191415 -72.6113481 123.60566503 -90.00390625 107.93359375 C-90.95523438 107.10408203 -90.95523438 107.10408203 -91.92578125 106.2578125 C-104.48750984 94.61320127 -110.91165679 77.23509741 -112.2890625 60.4609375 C-112.74499223 42.87790852 -107.91754206 26.72506456 -97.00390625 12.93359375 C-96.35808594 12.09957031 -95.71226562 11.26554687 -95.046875 10.40625 C-71.51398877 -17.92926607 -29.35104396 -20.19077016 0 0 Z M-70.00390625 31.93359375 C-75.83926845 39.46785887 -79.75768887 48.8002737 -79.34765625 58.453125 C-77.74472781 70.0197109 -73.25814702 78.88280125 -64.19140625 86.24609375 C-54.60187327 92.80350773 -45.38077742 94.06665612 -34.00390625 92.93359375 C-24.25653507 90.65065682 -16.41937891 84.52355437 -10.546875 76.5546875 C-5.67988487 68.28696503 -3.64117216 58.9161982 -5.4765625 49.51171875 C-8.37939825 38.31754974 -14.20245859 30.10750998 -24.00390625 23.93359375 C-39.89374895 15.47494064 -57.67889777 19.39235706 -70.00390625 31.93359375 Z " fill="#101010" transform="translate(298.00390625,178.06640625)"/>
</svg>
